<svg width="579" height="448" viewBox="0 0 579 448" fill="none" xmlns="http://www.w3.org/2000/svg">
<path opacity="0.15" d="M199.817 138.046C199.817 138.046 116.854 89.6786 13.633 317.006C13.633 317.006 -32.3101 391.008 47.7587 424.479C58.7561 429.073 151.1 474.2 240.816 424.382C240.816 424.382 301.591 395.845 429.315 407.864C430.111 407.937 430.907 407.961 431.679 407.937C445.811 407.816 570.69 403.995 577.973 306.365C577.973 306.365 590.731 228.445 489.222 228.01C378.814 227.55 357.543 228.01 292.427 189.316C292.427 189.316 239.369 155.458 199.817 138.046Z" fill="#28D7A1"/>
<path d="M415.777 158.886C415.777 158.886 425.904 132.77 432.519 123.596C432.519 123.596 446.571 101.812 473.707 95.5192C473.707 95.5192 490.206 92.9294 505.204 89.2261C505.204 89.2261 524.102 82.9329 505.204 116.335C505.204 116.335 482.381 133.472 464.694 144.364C464.694 144.364 462.998 154.481 447.031 158.886C447.031 158.886 425.686 160.774 415.777 158.886Z" fill="#F7C6B2"/>
<path fill-rule="evenodd" clip-rule="evenodd" d="M430.895 52.1974C430.895 23.9141 454.011 0.790833 482.231 0.790833C510.452 0.790833 533.568 23.9382 533.568 52.1974C533.568 80.4565 510.476 103.604 482.231 103.604C453.986 103.604 430.895 80.4806 430.895 52.1974ZM446.305 52.1974L471.973 77.9006L518.133 31.6299L510.957 24.4446L471.949 63.5058L453.481 45.012L446.305 52.1974Z" fill="#29D8A1"/>
<path d="M436.74 143.893C436.74 143.893 446.867 117.776 453.481 108.603C453.481 108.603 467.534 86.8186 494.67 80.5254C494.67 80.5254 511.169 77.9355 526.167 74.2322C526.167 74.2322 545.065 67.9391 526.167 101.341C526.167 101.341 510.418 122.399 492.731 133.291C492.731 133.291 483.961 139.487 467.994 143.893C467.994 143.893 446.649 145.781 436.74 143.893Z" fill="#FFD7C5"/>
<path d="M236.979 278.077C236.979 278.077 258.261 352.626 331.617 264.666C331.617 264.666 388.661 202.756 415.204 158.293L432.747 150.729C432.747 150.729 335.55 332.811 259.516 340.06C259.516 340.06 214.851 350.209 220.642 286.414L236.979 278.077Z" fill="#23CC94"/>
<path d="M325.936 108.747C325.936 108.747 304.59 144.789 311.103 178.754C311.103 178.754 311.874 230.016 292.579 226.585C292.579 226.585 271.305 221.512 261.898 230.209C261.898 230.209 224.272 275.141 239.467 311.377C239.467 311.377 209.655 316.523 194.17 283.162L227.89 164.356L253.215 117.153L325.936 108.747Z" fill="#FFD7C5"/>
<path d="M380.625 223.699C355.994 254.584 334.309 278.984 334.309 278.984C258.822 371.566 239.552 310.809 239.552 310.809C239.552 310.809 230.424 308.687 221.248 286.024C212.071 263.36 188.213 281.805 188.213 281.805C143.587 362.935 119.294 417.159 119.294 417.159C115.117 426.706 111.857 435.265 109.321 442.908C145.785 449.514 193.791 449.587 241.049 423.451C241.049 423.451 258.025 415.519 292.895 409.781C320.738 386.756 378.138 295.981 419.77 226.81C404.822 226.279 392.144 225.339 380.625 223.699Z" fill="#29D8A1"/>
<path d="M238.9 311.097C238.9 311.097 258.158 371.948 333.599 279.223C333.599 279.223 406.144 197.363 436.552 143.732H467.684C467.684 143.732 338.354 372.214 292.017 410.343C292.017 410.343 315.958 380.762 268.56 361.082C268.56 361.082 83.9151 497.297 118.667 417.587C118.667 417.587 142.945 363.28 187.544 282.024C187.544 282.024 211.388 263.551 220.558 286.25C229.729 308.948 238.9 311.097 238.9 311.097Z" fill="#29D8A1"/>
<path d="M193.623 283.668C193.623 283.668 255.039 285.845 251.654 209.183C251.654 209.183 239.564 135.181 285.506 128.893C285.506 128.893 345.472 121.154 331.931 72.787C331.931 72.787 311.137 12.3278 235.696 72.3033C235.696 72.3033 202.811 93.1012 198.459 153.077C198.459 153.077 187.82 199.509 167.509 235.301C167.509 235.301 144.78 278.832 193.623 283.668Z" fill="#0D0D0D"/>
</svg>
